<svg width="16" height="16" viewBox="0 0 16 16" fill="none" xmlns="http://www.w3.org/2000/svg">
<path d="M14.2766 12.9423C14.0266 13.1923 13.6874 13.3328 13.3338 13.3328H2.66623C2.31258 13.3328 1.97342 13.1923 1.72335 12.9423C1.47328 12.6923 1.33279 12.3531 1.33279 11.9995V3.33327C1.33279 2.97967 1.47328 2.64054 1.72335 2.39051C1.97342 2.14047 2.31258 2 2.66623 2H5.28644C5.5072 2.00004 5.72449 2.05487 5.91883 2.15959C6.11316 2.26431 6.27845 2.41563 6.39987 2.59997L6.93991 3.39993C7.06256 3.58618 7.22997 3.73868 7.42682 3.8435C7.62366 3.94832 7.84366 4.00209 8.06667 3.99991H13.3338C13.6874 3.99991 14.0266 4.14038 14.2766 4.39041C14.5267 4.64045 14.6672 4.97957 14.6672 5.33318V11.9995C14.6672 12.3531 14.5267 12.6923 14.2766 12.9423Z" stroke="black" stroke-linecap="round"/>
</svg>
